<svg width="24" height="24" viewBox="0 0 24 24" fill="none" xmlns="http://www.w3.org/2000/svg">
<path d="M8.15156 18.9185C8.15156 19.0122 8.04375 19.0872 7.90781 19.0872C7.75312 19.1013 7.64531 19.0263 7.64531 18.9185C7.64531 18.8247 7.75313 18.7497 7.88906 18.7497C8.02969 18.7356 8.15156 18.8106 8.15156 18.9185ZM6.69375 18.7075C6.66094 18.8013 6.75469 18.9091 6.89531 18.9372C7.01719 18.9841 7.15781 18.9372 7.18594 18.8435C7.21406 18.7497 7.125 18.6419 6.98438 18.5997C6.8625 18.5669 6.72656 18.6138 6.69375 18.7075ZM8.76562 18.6278C8.62969 18.6606 8.53594 18.7497 8.55 18.8575C8.56406 18.9513 8.68594 19.0122 8.82656 18.9794C8.9625 18.9466 9.05625 18.8575 9.04219 18.7638C9.02812 18.6747 8.90156 18.6138 8.76562 18.6278ZM11.85 0.665329C5.34844 0.665329 0.375 5.60127 0.375 12.1028C0.375 17.3013 3.64688 21.7497 8.32031 23.3153C8.92031 23.4231 9.13125 23.0528 9.13125 22.7481C9.13125 22.4575 9.11719 20.8544 9.11719 19.87C9.11719 19.87 5.83594 20.5731 5.14688 18.4731C5.14688 18.4731 4.6125 17.1091 3.84375 16.7575C3.84375 16.7575 2.77031 16.0216 3.91875 16.0356C3.91875 16.0356 5.08594 16.1294 5.72812 17.245C6.75469 19.0544 8.475 18.5341 9.14531 18.2247C9.25313 17.4747 9.55781 16.9544 9.89531 16.645C7.275 16.3544 4.63125 15.9747 4.63125 11.4653C4.63125 10.1763 4.9875 9.52939 5.7375 8.70439C5.61562 8.3997 5.21719 7.14345 5.85938 5.52158C6.83906 5.21689 9.09375 6.7872 9.09375 6.7872C10.0312 6.5247 11.0391 6.38877 12.0375 6.38877C13.0359 6.38877 14.0438 6.5247 14.9813 6.7872C14.9813 6.7872 17.2359 5.2122 18.2156 5.52158C18.8578 7.14814 18.4594 8.3997 18.3375 8.70439C19.0875 9.53408 19.5469 10.181 19.5469 11.4653C19.5469 15.9888 16.7859 16.3497 14.1656 16.645C14.5969 17.0153 14.9625 17.7185 14.9625 18.82C14.9625 20.3997 14.9484 22.3544 14.9484 22.7388C14.9484 23.0435 15.1641 23.4138 15.7594 23.306C20.4469 21.7497 23.625 17.3013 23.625 12.1028C23.625 5.60127 18.3516 0.665329 11.85 0.665329ZM4.93125 16.8325C4.87031 16.8794 4.88438 16.9872 4.96406 17.0763C5.03906 17.1513 5.14687 17.1841 5.20781 17.1231C5.26875 17.0763 5.25469 16.9685 5.175 16.8794C5.1 16.8044 4.99219 16.7716 4.93125 16.8325ZM4.425 16.4528C4.39219 16.5138 4.43906 16.5888 4.53281 16.6356C4.60781 16.6825 4.70156 16.6685 4.73438 16.6028C4.76719 16.5419 4.72031 16.4669 4.62656 16.42C4.53281 16.3919 4.45781 16.406 4.425 16.4528ZM5.94375 18.1216C5.86875 18.1825 5.89687 18.3231 6.00469 18.4122C6.1125 18.52 6.24844 18.5341 6.30937 18.4591C6.37031 18.3981 6.34219 18.2575 6.24844 18.1685C6.14531 18.0606 6.00469 18.0466 5.94375 18.1216ZM5.40938 17.4325C5.33437 17.4794 5.33437 17.6013 5.40938 17.7091C5.48438 17.8169 5.61094 17.8638 5.67188 17.8169C5.74687 17.756 5.74687 17.6341 5.67188 17.5263C5.60625 17.4185 5.48438 17.3716 5.40938 17.4325Z" fill="#22232A"/>
</svg>
