<svg width="24" height="24" viewBox="0 0 24 24" fill="none" xmlns="http://www.w3.org/2000/svg">
<g clip-path="url(#clip0)">
<path d="M21.533 7.11166C21.5482 7.32485 21.5482 7.53808 21.5482 7.75127C21.5482 14.2538 16.599 21.7462 7.5533 21.7462C4.76648 21.7462 2.17767 20.939 0 19.5381C0.395953 19.5837 0.776625 19.599 1.18781 19.599C3.48727 19.599 5.60405 18.8223 7.29441 17.4975C5.13197 17.4518 3.31978 16.0355 2.69541 14.0863C3 14.1319 3.30455 14.1624 3.62438 14.1624C4.06598 14.1624 4.50764 14.1015 4.91878 13.9949C2.66498 13.538 0.974578 11.5584 0.974578 9.1675V9.10661C1.62938 9.4721 2.39086 9.70052 3.19791 9.73094C1.87303 8.84767 1.00505 7.34008 1.00505 5.63449C1.00505 4.7208 1.24866 3.88324 1.67508 3.15227C4.09641 6.13703 7.73602 8.08624 11.8172 8.29947C11.7411 7.93399 11.6954 7.55331 11.6954 7.1726C11.6954 4.46191 13.8883 2.25381 16.6141 2.25381C18.0304 2.25381 19.3095 2.84772 20.208 3.80711C21.3197 3.59392 22.3857 3.18274 23.3299 2.6193C22.9643 3.76146 22.1877 4.72085 21.1674 5.32994C22.1573 5.22339 23.1167 4.94922 23.9999 4.56855C23.33 5.54313 22.4924 6.41111 21.533 7.11166Z" fill="#22232A"/>
</g>
<defs>
<clipPath id="clip0">
<rect width="24" height="24" fill="white"/>
</clipPath>
</defs>
</svg>
